<?xml version="1.0" encoding="utf-8"?>
<!-- Generator: Adobe Illustrator 16.0.0, SVG Export Plug-In . SVG Version: 6.00 Build 0)  -->
<!DOCTYPE svg PUBLIC "-//W3C//DTD SVG 1.1//EN" "http://www.w3.org/Graphics/SVG/1.1/DTD/svg11.dtd">
<svg version="1.1" xmlns="http://www.w3.org/2000/svg" xmlns:xlink="http://www.w3.org/1999/xlink" x="0px" y="0px" width="1000px"
	 height="1000px" viewBox="0 0 1000 1000" enable-background="new 0 0 1000 1000" xml:space="preserve">
<g id="レイヤー_1" display="none">
</g>
<g id="h" display="none">
	<g display="inline">
		<path d="M608.357,933.711H392.006V591.094c0-12.933-12.158-19.401-36.45-19.401c-24.791,0-37.186,6.224-37.186,18.667v343.352
			H102.019V455.854v-47.051H318.37v54.222v58.52c25.74-10.49,70.41-15.74,134.01-15.74c42.393,0,78.997,5.37,109.789,16.105
			c30.793,10.742,46.188,25.016,46.188,42.828v212.108v80.696V933.711z"/>
	</g>
</g>
<g id="hのコピー">
	<g>
		<path stroke="#000000" stroke-miterlimit="10" d="M310.37,942.711H94.019V268.92v-66.343H310.37v76.455V942.711z"/>
	</g>
</g>
<g id="hのコピー_2">
	<g>
		<path d="M604.357,940.711H388.005V266.92v-66.343h216.352v76.455V940.711z"/>
	</g>
</g>
<g id="hのコピー_3" display="none">
</g>
<g id="hのコピー_5" display="none">
</g>
<g id="レイヤー_3" display="none">
	<text transform="matrix(1 0 0 1 149.1948 829.5)" display="inline" font-family="'Haettenschweiler'" font-size="752.6743">H</text>
</g>
<g id="レイヤー_4">
	<text transform="matrix(2.058 0 0 1 63.0972 941)" fill="#FFFF00" font-family="'Haettenschweiler'" font-size="763.262">r</text>
</g>
<g id="レイヤー_4のコピー" display="none">
</g>
<g id="レイヤー_5" display="none">
	<text transform="matrix(1 0 0 1 232.7144 175.9287)" display="inline" font-family="'Haettenschweiler'" font-size="72">R</text>
</g>
<g id="レイヤー_6のコピー">
	<text transform="matrix(2.1233 0 0 1 360.8491 940.4248)" fill="#00FF00" font-family="'Haettenschweiler'" font-size="746.6232">c</text>
</g>
<g id="レイヤー_6">
	<path fill="#A4FF26" d="M385,686h218v-92.903c0-2.514,0-4.796,1-6.851v-21.004c0-18.391-15.514-33.25-46.623-44.563
		c-9.238-3.359-19.006-6.208-29.324-8.57c-88.783,10.23-137.165,34.271-145.087,72.111c1.374,2.368,2.034,5.096,2.034,8.193V686z"/>
</g>
<g id="hのコピー_4">
	<path fill="none" stroke="#000000" stroke-width="6" stroke-miterlimit="10" d="M385,204v58.92v244.858
		c-32,2.399-56,7.987-73,14.767V204H94v58.92V944h216v-3h1V590.359c0-12.443,12.578-18.667,37.368-18.667
		c24.282,0,36.632,6.464,36.632,19.385V944h216v-10.289v-76.168v-80.696V564.738V273.032V204H385z"/>
</g>
<g id="レイヤー_7" display="none">
	<text transform="matrix(1 0 0 1 195.2144 213.4287)" display="inline" font-family="'Haettenschweiler'" font-size="72">C</text>
</g>
</svg>
